<svg xmlns="http://www.w3.org/2000/svg" id="a9d7696c-92fb-4697-8a7a-7ec2b51e5e13" data-name="Layer 1" width="260.3059" height="267" viewBox="0 0 260.3059 267"><polygon points="181.145 133.5 260.306 103.793 176.096 111.375 234.528 50.264 161.946 93.633 188.076 13.221 141.5 83.786 130.153 0 118.806 83.786 72.229 13.221 98.36 93.633 25.778 50.264 84.21 111.375 0 103.793 79.16 133.5 0 163.207 84.21 155.625 25.778 216.736 98.36 173.368 72.229 253.779 118.806 183.214 130.153 267 141.5 183.214 188.076 253.779 161.946 173.368 234.528 216.736 176.096 155.625 260.306 163.207 181.145 133.5"></polygon></svg>